# xmcd CD database file
#
# Track frame offsets:
#	150
#	25170
#	55061
#	82346
#	106161
#	128730
#	147926
#	168313
#
# Disc length: 2843 seconds
#
# Revision: 0
# Processed by: cddbd v1.5.2PL0 Copyright (c) Steve Scherf et al.
# Submitted via: CDex 1.51
#
DISCID=650b1908
DTITLE=Medwyn Goodall - Knight
DYEAR=2011
DGENRE=New Age
TTITLE0=Thee Immortal
TTITLE1=Enchantress
TTITLE2=The Light And The Darkness
TTITLE3=Wizards Banquet
TTITLE4=Demons
TTITLE5=No More Goodbyes
TTITLE6=Age Of Heroes
TTITLE7=Knight
EXTD=YEAR: 2011
EXTT0=
EXTT1=
EXTT2=
EXTT3=
EXTT4=
EXTT5=
EXTT6=
EXTT7=
PLAYORDER=
